<?xml version="1.0" encoding="UTF-8" standalone="no"?>
<!-- Created with Inkscape (http://www.inkscape.org/) -->

<svg
   width="48.050541"
   height="48.598907"
   viewBox="0 0 48.050541 48.598909"
   id="svg2"
   version="1.1"
   inkscape:version="1.2.2 (732a01da63, 2022-12-09)"
   sodipodi:docname="mini logo.svg"
   inkscape:export-filename="O:\Documents\Inkscape Image Editing &amp; Design\SLICER Samir Saba\SamirSabaLogo1.png"
   inkscape:export-xdpi="90"
   inkscape:export-ydpi="90"
   xmlns:inkscape="http://www.inkscape.org/namespaces/inkscape"
   xmlns:sodipodi="http://sodipodi.sourceforge.net/DTD/sodipodi-0.dtd"
   xmlns:xlink="http://www.w3.org/1999/xlink"
   xmlns="http://www.w3.org/2000/svg"
   xmlns:svg="http://www.w3.org/2000/svg"
   xmlns:rdf="http://www.w3.org/1999/02/22-rdf-syntax-ns#"
   xmlns:cc="http://creativecommons.org/ns#"
   xmlns:dc="http://purl.org/dc/elements/1.1/">
  <defs
     id="defs4">
    <pattern
       inkscape:isstock="true"
       inkscape:stockid="Stripes 1:1"
       id="Strips1_1-15"
       patternTransform="translate(0,0) scale(10,10)"
       height="1"
       width="2"
       patternUnits="userSpaceOnUse"
       inkscape:collect="always">
      <rect
         id="rect4884-2"
         height="2"
         width="1"
         y="-0.5"
         x="0"
         style="fill:black;stroke:none" />
    </pattern>
    <circle
       style="opacity:1;fill:#2800d9;fill-opacity:0.196078;stroke:none;stroke-width:50;stroke-linecap:butt;stroke-linejoin:miter;stroke-miterlimit:27.5;stroke-dasharray:none;stroke-dashoffset:0;stroke-opacity:1"
       id="path4493"
       cx="-303.70334"
       cy="-30.313601"
       r="149.99998"
       transform="rotate(-135.93038)" />
    <pattern
       inkscape:collect="always"
       xlink:href="#Strips1_1-15"
       id="pattern4931"
       patternTransform="matrix(10,0,0,10,197.83503,361.75005)" />
    <pattern
       inkscape:collect="always"
       xlink:href="#Strips1_1-15"
       id="pattern4937"
       patternTransform="matrix(10,0,0,10,197.83503,361.75005)" />
    <pattern
       inkscape:collect="always"
       xlink:href="#Strips1_1-15"
       id="pattern4943"
       patternTransform="matrix(10,0,0,10,197.83503,361.75005)" />
    <pattern
       inkscape:collect="always"
       xlink:href="#Strips1_1-1"
       id="pattern3515"
       patternTransform="matrix(10,0,0,10,189.382,476.317)" />
    <pattern
       inkscape:isstock="true"
       inkscape:stockid="Stripes 1:1"
       id="Strips1_1-1"
       patternTransform="translate(0,0) scale(10,10)"
       height="1"
       width="2"
       patternUnits="userSpaceOnUse"
       inkscape:collect="always">
      <rect
         id="rect4884-7"
         height="2"
         width="1"
         y="-0.5"
         x="0"
         style="fill:black;stroke:none" />
    </pattern>
    <ellipse
       style="opacity:1;fill:none;fill-opacity:1;stroke:#000000;stroke-width:38.9;stroke-miterlimit:4;stroke-dasharray:none;stroke-opacity:1"
       id="path4151-2"
       cx="-143.1967"
       cy="737.99634"
       rx="161.55257"
       ry="168.53862"
       transform="matrix(-0.72630958,0.68736772,0.68736772,0.72630958,0,0)" />
    <pattern
       inkscape:collect="always"
       xlink:href="#Strips1_1-1"
       id="pattern4971"
       patternTransform="matrix(10,0,0,10,189.382,476.317)" />
    <pattern
       inkscape:collect="always"
       xlink:href="#Strips1_1-1"
       id="pattern4977"
       patternTransform="matrix(10,0,0,10,189.382,476.317)" />
    <pattern
       inkscape:collect="always"
       xlink:href="#Strips1_1-1"
       id="pattern4983"
       patternTransform="matrix(10,0,0,10,189.382,476.317)" />
  </defs>
  <sodipodi:namedview
     id="base"
     pagecolor="#ffffff"
     bordercolor="#666666"
     borderopacity="1.0"
     inkscape:pageopacity="0.0"
     inkscape:pageshadow="2"
     inkscape:zoom="8.14"
     inkscape:cx="49.017199"
     inkscape:cy="32.800983"
     inkscape:document-units="px"
     inkscape:current-layer="layer4"
     showgrid="true"
     units="px"
     showguides="true"
     inkscape:guide-bbox="true"
     inkscape:window-width="1920"
     inkscape:window-height="1017"
     inkscape:window-x="-8"
     inkscape:window-y="-8"
     inkscape:window-maximized="1"
     inkscape:showpageshadow="2"
     inkscape:pagecheckerboard="0"
     inkscape:deskcolor="#d1d1d1">
    <inkscape:grid
       type="xygrid"
       id="grid4136"
       spacingx="20"
       spacingy="20"
       originx="-1.4766223"
       originy="-1.7685964" />
    <sodipodi:guide
       position="198.52338,-149.6325"
       orientation="-0.70710678,0.70710678"
       id="guide4143"
       inkscape:locked="false" />
    <sodipodi:guide
       position="198.52338,-149.6325"
       orientation="0.70710678,0.70710678"
       id="guide4145"
       inkscape:locked="false" />
    <sodipodi:guide
       position="198.52338,-149.6325"
       orientation="0,1"
       id="guide4147"
       inkscape:locked="false" />
    <sodipodi:guide
       position="198.52338,-149.6325"
       orientation="1,0"
       id="guide4149"
       inkscape:locked="false" />
  </sodipodi:namedview>
  <metadata
     id="metadata7">
    <rdf:RDF>
      <cc:Work
         rdf:about="">
        <dc:format>image/svg+xml</dc:format>
        <dc:type
           rdf:resource="http://purl.org/dc/dcmitype/StillImage" />
      </cc:Work>
    </rdf:RDF>
  </metadata>
  <g
     inkscape:label="Rings"
     inkscape:groupmode="layer"
     id="layer1"
     transform="translate(-1.4766223,-654.13076)" />
  <g
     inkscape:groupmode="layer"
     id="layer2"
     inkscape:label="Bottom Text"
     transform="translate(-1.4766223,-1.7685964)">
    <flowRoot
       xml:space="preserve"
       id="flowRoot4959"
       style="font-style:normal;font-weight:normal;line-height:0.01%;font-family:sans-serif;letter-spacing:0px;word-spacing:0px;fill:#000000;fill-opacity:1;stroke:none;stroke-width:1px;stroke-linecap:butt;stroke-linejoin:miter;stroke-opacity:1"><flowRegion
         id="flowRegion4961"><rect
           id="rect4963"
           width="280"
           height="80"
           x="500"
           y="240" /></flowRegion><flowPara
         id="flowPara4965"
         style="font-size:40px;line-height:1.25"> </flowPara></flowRoot>
  </g>
  <g
     inkscape:groupmode="layer"
     id="layer3"
     inkscape:label="Top Text"
     transform="translate(-1.4766223,-1.7685964)" />
  <g
     inkscape:groupmode="layer"
     id="layer4"
     inkscape:label="Shape"
     transform="translate(-1.4766223,-1.7685964)">
    <g
       id="g5134"
       transform="matrix(0.15267178,0,0,0.15201147,-5.0368223,-4.7297188)">
      <circle
         r="139.86549"
         cy="852.4765"
         cx="200.02855"
         id="path4141"
         style="opacity:1;fill:none;fill-opacity:0.346369;stroke:#000000;stroke-width:35;stroke-linecap:butt;stroke-linejoin:miter;stroke-miterlimit:27.5;stroke-dasharray:none;stroke-opacity:1"
         transform="translate(0,-652.36216)" />
      <circle
         r="107.97525"
         cy="852.4765"
         cx="200.02855"
         id="path4141-2"
         style="opacity:1;fill:none;fill-opacity:0.346369;stroke:#000000;stroke-width:4.05;stroke-linecap:butt;stroke-linejoin:miter;stroke-miterlimit:27.5;stroke-dasharray:none;stroke-opacity:1"
         transform="translate(0,-652.36216)" />
      <ellipse
         transform="matrix(-0.71756131,0.69649534,0.70541553,0.708794,0,0)"
         ry="147.37361"
         rx="151.91391"
         cy="281.28064"
         cx="-3.1977236"
         id="path4948"
         style="opacity:1;fill:none;fill-opacity:1;stroke:none;stroke-width:0;stroke-linecap:butt;stroke-linejoin:miter;stroke-miterlimit:27.5;stroke-dasharray:none;stroke-opacity:1" />
      <g
         id="text3509"
         style="font-style:normal;font-variant:normal;font-weight:bold;font-stretch:normal;font-size:33.75px;line-height:125%;font-family:'Berlin Sans FB Demi';-inkscape-font-specification:'Berlin Sans FB Demi, Bold';text-align:start;letter-spacing:0px;word-spacing:0px;writing-mode:lr-tb;text-anchor:start;fill:#ffffff;fill-opacity:1;stroke:url(#pattern3515);stroke-width:0;stroke-linecap:butt;stroke-linejoin:miter;stroke-miterlimit:4;stroke-dasharray:none;stroke-opacity:1"
         transform="translate(1.2857143,4.1428571)">
        <path
           inkscape:connector-curvature="0"
           id="path5047"
           style="font-style:normal;font-variant:normal;font-weight:bold;font-stretch:normal;font-size:33.75px;line-height:125%;font-family:'Berlin Sans FB Demi';-inkscape-font-specification:'Berlin Sans FB Demi, Bold';text-align:start;writing-mode:lr-tb;text-anchor:start;fill:#ffffff;fill-opacity:1;stroke:url(#pattern3515);stroke-width:0;stroke-miterlimit:4;stroke-dasharray:none;stroke-opacity:1"
           d="m 103.80086,314.41489 q -1.06153,-0.939 -2.72123,-2.49515 -2.178118,-2.01472 -2.710304,-2.50749 l -3.646975,-3.31404 q -0.566367,-0.47899 -1.548612,-1.45787 -0.303362,-0.37836 -0.01948,-0.69929 1.19013,-1.34542 3.596503,-3.99116 2.429634,-2.64717 3.619768,-3.99259 1.26656,-1.43182 3.70236,-4.35955 2.44672,-2.94008 3.71328,-4.3719 0.24021,-0.27156 0.61051,0.056 0.3703,0.32756 1.0658,1.00879 0.70784,0.69215 1.06579,1.00879 0.40733,0.36031 1.2424,1.03299 0.84599,0.66034 1.25332,1.02065 0.18515,0.16378 -0.0346,0.38739 L 112.8351,291.89 q -2.20082,2.18952 -6.50229,6.67917 l -2.89487,3.24771 q -1.39758,1.57995 -2.02944,2.31912 -0.11868,0.15904 -0.23736,0.31808 -0.11868,0.15903 0.0214,0.34893 0.0123,0.0109 0.32093,0.28388 1.1109,0.98268 3.41862,2.82602 2.33098,1.84192 3.44188,2.8246 0.33327,0.2948 0.0821,0.5787 -1.86709,2.1107 -3.52958,3.36831 -0.3456,0.26633 -0.59769,0.15335 -0.0836,-0.0299 -0.52791,-0.42298 z" />
        <path
           inkscape:connector-curvature="0"
           id="path5049"
           style="font-style:normal;font-variant:normal;font-weight:bold;font-stretch:normal;font-size:33.75px;line-height:125%;font-family:'Berlin Sans FB Demi';-inkscape-font-specification:'Berlin Sans FB Demi, Bold';text-align:start;writing-mode:lr-tb;text-anchor:start;fill:#ffffff;fill-opacity:1;stroke:url(#pattern3515);stroke-width:0;stroke-miterlimit:4;stroke-dasharray:none;stroke-opacity:1"
           d="m 124.83053,318.62474 q -0.70746,1.0534 -1.98088,3.21554 -1.27342,2.16214 -1.97169,3.20186 -0.36751,0.54722 -0.8739,0.26669 -1.77908,-1.01616 -3.96797,-2.48621 -0.25993,-0.17457 0.16801,-1.01868 0.45081,-0.8486 0.33687,-0.94497 -0.14619,-0.0188 -0.44348,0.0396 -2.57045,0.51687 -4.32156,-0.65917 -2.66771,-1.79162 -3.0039,-5.07447 -0.33231,-3.08172 1.50525,-5.81784 2.12239,-3.16021 5.12794,-3.94069 3.11989,-0.80295 6.2117,1.27349 2.14785,1.44249 2.38212,3.78344 0.009,0.10515 0.0498,0.13272 0.12312,0.0827 0.71462,-0.47291 0.61437,-0.5601 0.83326,-0.41309 0.50618,0.33995 1.73602,1.58277 1.17062,1.1832 1.63025,1.76981 0.15008,0.2199 0.0582,0.3567 -0.0368,0.0547 -0.23399,0.25973 -2.10077,2.18217 -3.95671,4.94565 z m -4.46027,-2.87639 q 0.78097,-1.16285 0.54755,-2.41142 -0.21056,-1.25307 -1.38709,-2.04322 -1.17652,-0.79015 -2.40692,-0.52467 -1.2304,0.26548 -2.02055,1.44201 -0.74422,1.10812 -0.511,2.41611 0.23322,1.30799 1.32767,2.04302 1.16285,0.78096 2.40693,0.52467 1.25326,-0.26997 2.04341,-1.4465 z" />
        <path
           inkscape:connector-curvature="0"
           id="path5051"
           style="font-style:normal;font-variant:normal;font-weight:bold;font-stretch:normal;font-size:33.75px;line-height:125%;font-family:'Berlin Sans FB Demi';-inkscape-font-specification:'Berlin Sans FB Demi, Bold';text-align:start;writing-mode:lr-tb;text-anchor:start;fill:#ffffff;fill-opacity:1;stroke:url(#pattern3515);stroke-width:0;stroke-miterlimit:4;stroke-dasharray:none;stroke-opacity:1"
           d="m 154.33659,325.41117 q -1.51037,3.69096 -4.38355,5.18612 -3.06661,1.57625 -6.71182,0.0846 -0.61008,-0.24965 -1.82052,-0.8162 -1.18894,-0.57555 -1.79902,-0.8252 -0.65583,-0.26837 -0.88676,0.29595 -0.28709,0.70159 -0.71777,2.14569 -0.43069,1.44409 -0.71154,2.13043 -0.14355,0.35079 -0.46384,0.21973 -0.93037,-0.38072 -2.76613,-1.20315 -1.84202,-0.80718 -2.77238,-1.18789 -0.44231,-0.181 -0.26131,-0.62331 0.69277,-1.69296 2.12407,-5.06016 1.45279,-3.37622 2.14557,-5.06918 1.95973,-4.7891 3.70738,-10.23478 l 0.0721,-0.21977 q 0.0881,-0.30227 0.6011,-0.16356 1.25207,0.3343 5.30908,1.99446 2.39455,0.97986 4.56586,1.9396 3.57102,1.58593 4.8963,4.65668 1.34607,3.15047 -0.12685,6.74993 z m -6.18538,-2.24621 q 1.4542,-3.5537 -2.00799,-4.97045 -2.44031,-0.99859 -2.67466,-0.77398 -0.1879,0.15458 -1.54848,3.4795 -0.19348,0.47281 -0.54369,1.41566 -0.32872,0.93384 -0.52219,1.40665 -0.12483,0.30504 2.62052,1.42845 3.30967,1.35434 4.67649,-1.98583 z" />
        <path
           inkscape:connector-curvature="0"
           id="path5053"
           style="font-style:normal;font-variant:normal;font-weight:bold;font-stretch:normal;font-size:33.75px;line-height:125%;font-family:'Berlin Sans FB Demi';-inkscape-font-specification:'Berlin Sans FB Demi, Bold';text-align:start;writing-mode:lr-tb;text-anchor:start;fill:#ffffff;fill-opacity:1;stroke:url(#pattern3515);stroke-width:0;stroke-miterlimit:4;stroke-dasharray:none;stroke-opacity:1"
           d="m 169.11024,335.25717 q -0.30944,1.23061 -0.77643,3.69605 -0.467,2.46543 -0.77241,3.68006 -0.16075,0.63928 -0.73217,0.54657 -2.01794,-0.35447 -4.57506,-0.99745 -0.30366,-0.0764 -0.18647,-1.01546 0.13719,-0.95107 -0.003,-1.00322 -0.14393,0.0318 -0.40394,0.18731 -2.24409,1.35587 -4.28978,0.84149 -3.11649,-0.78363 -4.54332,-3.75925 -1.35514,-2.78766 -0.55141,-5.98406 0.9283,-3.69184 3.49268,-5.44297 2.66438,-1.81095 6.27631,-0.90274 2.50918,0.63092 3.52149,2.75464 0.0438,0.096 0.0918,0.10804 0.14384,0.0362 0.51253,-0.68676 0.3887,-0.7349 0.64441,-0.6706 0.59134,0.14869 2.16907,0.90225 1.50185,0.71748 2.13281,1.11403 0.21562,0.15618 0.17543,0.316 -0.0161,0.0639 -0.13233,0.32356 -1.2388,2.76415 -2.05056,5.99251 z m -5.17032,-1.19811 q 0.34158,-1.35847 -0.30042,-2.45448 -0.622,-1.10798 -1.99645,-1.45359 -1.37445,-0.3456 -2.44253,0.32042 -1.06807,0.66603 -1.41367,2.04048 -0.32551,1.29454 0.3364,2.44654 0.66191,1.152 1.94047,1.47349 1.35847,0.34158 2.44253,-0.32042 1.08807,-0.67799 1.43367,-2.05244 z" />
        <path
           inkscape:connector-curvature="0"
           id="path5055"
           style="font-style:normal;font-variant:normal;font-weight:bold;font-stretch:normal;font-size:33.75px;line-height:125%;font-family:'Berlin Sans FB Demi';-inkscape-font-specification:'Berlin Sans FB Demi, Bold';text-align:start;writing-mode:lr-tb;text-anchor:start;fill:#ffffff;fill-opacity:1;stroke:url(#pattern3515);stroke-width:0;stroke-miterlimit:4;stroke-dasharray:none;stroke-opacity:1"
           d="m 182.91501,345.59182 q -0.55576,-0.0712 -1.55454,-0.31549 -1.08051,-0.25475 -1.5361,-0.32975 -1.05829,-0.16883 -3.3794,-0.46625 -2.68072,-0.34349 -3.80062,-0.42054 -0.23093,-0.013 -1.15677,-0.0485 -0.72969,-0.0104 -1.17103,-0.067 -0.29423,-0.0377 -0.24186,-0.44634 0.036,-0.41074 0.14033,-1.09518 0.13532,-0.79675 0.17093,-1.07463 0.0398,-0.31057 0.003,-0.93003 -0.0206,-0.61736 0.015,-0.89524 0.0272,-0.2125 0.29965,-0.39358 3.69899,-2.4169 6.85899,-5.03578 -0.37596,-0.0482 -1.14002,-0.17931 -0.76407,-0.13113 -1.15637,-0.1814 -0.58845,-0.0754 -1.80642,-0.16501 -1.19953,-0.10386 -1.78798,-0.17926 -0.27788,-0.0356 -0.25275,-0.23176 0.0482,-0.37595 0.78739,-2.12541 0.7413,-1.76581 0.8544,-2.64848 0.0356,-0.27788 0.60771,-0.20457 0.049,0.006 1.91793,0.46174 1.54826,0.36453 4.22898,0.70802 0.88267,0.11311 2.63587,0.30453 1.76954,0.19351 2.65221,0.30661 0.53942,0.0691 0.48077,0.5268 l -0.45241,3.53071 q -0.0712,0.55576 -7.07604,5.82206 4.80568,0.61578 6.58023,0.51088 0.1513,-0.0138 0.21669,-0.005 0.22884,0.0293 0.2058,0.20913 0.0335,-0.26154 -1.01746,2.49467 -0.21495,0.76994 -0.68972,2.27085 -0.12571,0.33279 -0.43628,0.29299 z" />
        <path
           inkscape:connector-curvature="0"
           id="path5057"
           style="font-style:normal;font-variant:normal;font-weight:bold;font-stretch:normal;font-size:33.75px;line-height:125%;font-family:'Berlin Sans FB Demi';-inkscape-font-specification:'Berlin Sans FB Demi, Bold';text-align:start;writing-mode:lr-tb;text-anchor:start;fill:#ffffff;fill-opacity:1;stroke:url(#pattern3515);stroke-width:0;stroke-miterlimit:4;stroke-dasharray:none;stroke-opacity:1"
           d="m 205.93245,332.9254 q 0.0137,0.51068 -0.19487,1.34054 -0.18002,0.66424 -0.34313,1.34451 -0.0438,0.82545 -0.24898,2.39706 -0.0432,0.23196 -0.38918,0.24123 -0.626,0.0168 -1.8949,0.0343 -1.25244,0.0171 -1.89491,0.0343 -1.72972,0.0464 -4.63716,0.43751 -0.16429,0.0209 -0.88604,0.15563 -0.57392,0.11429 -0.9034,0.12313 -0.42831,0.0115 -0.44994,-0.79573 -0.0115,-0.42831 0.49608,-2.40368 0.49373,-1.87609 0.72627,-2.42634 0.10825,-0.26666 0.42125,-0.27505 0.64247,-0.0172 1.92917,0.0142 1.28671,0.0315 1.92917,0.0142 1.35084,-0.0362 4.45375,-0.51502 1.62514,-0.25787 1.5263,-0.25522 0.34595,-0.009 0.36052,0.53436 z" />
        <path
           inkscape:connector-curvature="0"
           id="path5059"
           style="font-style:normal;font-variant:normal;font-weight:bold;font-stretch:normal;font-size:33.75px;line-height:125%;font-family:'Berlin Sans FB Demi';-inkscape-font-specification:'Berlin Sans FB Demi, Bold';text-align:start;writing-mode:lr-tb;text-anchor:start;fill:#ffffff;fill-opacity:1;stroke:url(#pattern3515);stroke-width:0;stroke-miterlimit:4;stroke-dasharray:none;stroke-opacity:1"
           d="m 235.11604,333.82915 q 0.59505,2.97327 -0.87194,5.30042 -1.66731,2.66976 -6.98364,3.73373 -0.40398,0.0808 -1.16669,0.21669 -0.77563,0.15523 -1.14729,0.22961 -5.96269,1.19333 -7.14234,1.17732 -0.48801,-0.003 -0.56886,-0.40714 -0.34604,-1.72902 -0.8539,-5.27435 -0.4917,-3.54855 -0.84097,-5.29373 -0.37514,-1.87445 -1.60391,-7.00654 -0.31366,-1.31534 -0.97331,-3.93956 l -0.0614,-0.22299 q -0.0776,-0.30379 0.42655,-0.47191 0.52031,-0.17136 3.73597,-0.81492 5.15474,-1.03163 6.03379,-1.17395 4.00424,-0.65012 6.12446,0.1188 2.81188,1.03385 3.54275,4.6858 0.19081,0.95338 -0.17748,2.1363 -0.26814,0.84356 -0.79482,1.73886 -0.4653,0.78218 -0.475,0.7337 0.0226,0.11312 0.49129,0.27142 1.26049,0.41998 2.1882,1.69646 0.83398,1.14399 1.11857,2.56598 z m -8.76912,-7.70694 q -0.27812,-1.38968 -1.75835,-1.56402 -0.82414,-0.0872 -2.60164,0.26858 -1.74518,0.34927 -1.69343,0.60782 0.0614,0.30702 0.12293,0.95016 0.0744,0.62374 0.13586,0.93077 0.3234,1.6159 0.63691,1.75483 0.20685,0.10986 2.0813,-0.26528 3.4742,-0.6953 3.07642,-2.68286 z m 2.29256,8.93589 q -0.29106,-1.45431 -1.60647,-1.72886 -0.84032,-0.16795 -2.5855,0.18132 -2.08451,0.41718 -2.22992,0.61434 -0.14865,0.18101 0.21679,2.00698 0.38161,1.90677 0.63372,2.0748 0.24887,0.15187 2.36571,-0.27178 1.74518,-0.34927 2.4012,-0.76627 1.08582,-0.70469 0.80447,-2.11053 z" />
        <path
           inkscape:connector-curvature="0"
           id="path5061"
           style="font-style:normal;font-variant:normal;font-weight:bold;font-stretch:normal;font-size:33.75px;line-height:125%;font-family:'Berlin Sans FB Demi';-inkscape-font-specification:'Berlin Sans FB Demi, Bold';text-align:start;writing-mode:lr-tb;text-anchor:start;fill:#ffffff;fill-opacity:1;stroke:url(#pattern3515);stroke-width:0;stroke-miterlimit:4;stroke-dasharray:none;stroke-opacity:1"
           d="m 250.82815,327.39553 q 1.19744,3.56141 -0.24362,6.51475 -1.42543,2.94808 -4.97122,4.14027 -3.43644,1.15542 -6.38978,-0.28563 -2.95334,-1.44106 -4.10877,-4.8775 -1.21844,-3.62389 0.14963,-6.58747 1.36282,-2.97919 4.98671,-4.19763 3.53016,-1.18694 6.46277,0.29586 2.92735,1.46718 4.11428,4.99735 z m -5.12343,1.72263 q -0.4149,-1.234 -1.4954,-1.91386 -1.08576,-0.69549 -2.30414,-0.28584 -1.234,0.4149 -1.70501,1.6512 -0.44516,1.15806 -0.025,2.40768 0.4254,1.26524 1.47979,1.91912 1.12225,0.7006 2.35624,0.2857 1.21838,-0.40965 1.68939,-1.64595 0.42954,-1.15281 0.004,-2.41805 z" />
        <path
           inkscape:connector-curvature="0"
           id="path5063"
           style="font-style:normal;font-variant:normal;font-weight:bold;font-stretch:normal;font-size:33.75px;line-height:125%;font-family:'Berlin Sans FB Demi';-inkscape-font-specification:'Berlin Sans FB Demi, Bold';text-align:start;writing-mode:lr-tb;text-anchor:start;fill:#ffffff;fill-opacity:1;stroke:url(#pattern3515);stroke-width:0;stroke-miterlimit:4;stroke-dasharray:none;stroke-opacity:1"
           d="m 256.7513,322.6551 q 1.79656,4.12462 2.78758,6.31729 0.15136,0.3475 0.56521,1.17383 0.38095,0.75079 0.56521,1.17383 0.1382,0.31728 -0.21319,0.54223 -0.62723,0.41701 -2.39493,1.18696 -1.81302,0.7897 -2.36424,0.886 -0.36529,0.0692 -0.5554,-0.24341 -0.0197,-0.0453 -0.28297,-0.64966 -0.5857,-1.34466 -1.72029,-4.03202 -1.14117,-2.70247 -1.72028,-4.03202 -2.76395,-6.34556 -2.50535,-5.79313 -1.49969,-3.31923 -2.885,-5.59181 -0.10261,-0.15303 -0.1421,-0.24368 -0.14477,-0.33239 0.24805,-0.50349 l 5.39373,-2.34936 q 0.37771,-0.16452 0.48569,0.16592 l 0.10335,0.27853 q 2.45009,6.69797 4.63493,11.71399 z" />
        <path
           inkscape:connector-curvature="0"
           id="path5065"
           style="font-style:normal;font-variant:normal;font-weight:bold;font-stretch:normal;font-size:33.75px;line-height:125%;font-family:'Berlin Sans FB Demi';-inkscape-font-specification:'Berlin Sans FB Demi, Bold';text-align:start;writing-mode:lr-tb;text-anchor:start;fill:#ffffff;fill-opacity:1;stroke:url(#pattern3515);stroke-width:0;stroke-miterlimit:4;stroke-dasharray:none;stroke-opacity:1"
           d="m 260.31634,309.85023 q 1.29773,2.55697 -1.58253,4.01877 -1.2344,0.62649 -2.37079,0.39011 -1.23971,-0.25788 -1.85128,-1.46289 -0.58174,-1.14622 -0.0436,-2.34339 0.49455,-1.1011 1.67017,-1.69776 1.14622,-0.58174 2.33438,-0.31618 1.26932,0.27981 1.8436,1.41134 z m 5.15937,11.11245 q 0.54445,1.07275 1.66997,3.18118 1.11807,2.09373 1.65506,3.15179 0.15662,0.3086 -0.18093,0.55383 -0.45488,0.34175 -2.20361,1.22928 -1.76343,0.89498 -2.30781,1.06039 -0.35313,0.1053 -0.49373,0.0103 -0.0592,-0.0439 -0.25314,-0.42594 -0.51461,-1.01397 -1.49976,-3.06428 -0.9926,-2.065 -1.51467,-3.09367 -2.11813,-4.17344 -3.69441,-6.47815 -0.14872,-0.22021 -0.18601,-0.29368 -0.14916,-0.29391 0.24761,-0.49528 0.41146,-0.20883 1.29384,-0.54577 0.89707,-0.34441 1.32323,-0.5607 0.42616,-0.21628 1.24119,-0.72233 0.81503,-0.50606 1.24119,-0.72234 0.35269,-0.179 0.50185,0.1149 0.0298,0.0588 0.11232,0.29413 1.13105,3.02964 3.04781,6.80631 z" />
        <path
           inkscape:connector-curvature="0"
           id="path5067"
           style="font-style:normal;font-variant:normal;font-weight:bold;font-stretch:normal;font-size:33.75px;line-height:125%;font-family:'Berlin Sans FB Demi';-inkscape-font-specification:'Berlin Sans FB Demi, Bold';text-align:start;writing-mode:lr-tb;text-anchor:start;fill:#ffffff;fill-opacity:1;stroke:url(#pattern3515);stroke-width:0;stroke-miterlimit:4;stroke-dasharray:none;stroke-opacity:1"
           d="m 279.19306,308.22499 q 1.49106,2.3912 1.60755,2.92061 0.29747,1.19339 0.17169,4.57336 -0.1253,2.91357 -0.40312,4.67932 -0.0933,0.66021 -1.92512,1.80248 -1.59413,0.99404 -2.13933,1.17864 -0.33726,0.11319 -0.66382,0.0255 -1.4058,-0.38576 -4.36184,-1.66924 -3.17255,-1.38153 -4.05223,-2.07593 -0.95124,-0.74688 -2.15455,-2.67662 -0.34007,-0.54536 -1.00622,-1.6448 -0.67487,-1.11343 -1.02365,-1.67277 -0.22671,-0.36358 0.26272,-0.66876 0.71316,-0.4447 2.16565,-1.29216 1.46647,-0.85617 2.17963,-1.30087 0.32163,-0.20055 0.59194,0.23294 0.24415,0.39154 0.68523,1.22349 0.43237,0.81796 0.68524,1.22348 0.90684,1.4543 1.56624,2.3249 0.33841,0.44929 1.92716,1.28417 1.66031,0.88736 2.02388,0.66064 0.34959,-0.21799 0.27289,-2.05398 -0.0524,-1.73465 -0.28417,-2.23099 -0.50723,-1.06259 -1.38791,-2.47494 -0.25287,-0.40552 -0.84251,-1.16425 -0.59836,-0.77272 -0.84251,-1.16426 -0.27031,-0.43349 0.0233,-0.6166 0.33561,-0.20928 1.00155,-0.60511 0.67994,-0.40456 1.01555,-0.61383 0.3356,-0.20928 0.97194,-0.68375 0.65032,-0.4832 0.98592,-0.69247 0.34959,-0.21799 0.68817,0.0758 0.73474,0.64883 2.26068,3.09596 z" />
        <path
           inkscape:connector-curvature="0"
           id="path5069"
           style="font-style:normal;font-variant:normal;font-weight:bold;font-stretch:normal;font-size:33.75px;line-height:125%;font-family:'Berlin Sans FB Demi';-inkscape-font-specification:'Berlin Sans FB Demi, Bold';text-align:start;writing-mode:lr-tb;text-anchor:start;fill:#ffffff;fill-opacity:1;stroke:url(#pattern3515);stroke-width:0;stroke-miterlimit:4;stroke-dasharray:none;stroke-opacity:1"
           d="m 280.30578,296.70877 q 1.72418,2.29115 -0.85665,4.23333 -1.10608,0.83236 -2.26629,0.79799 -1.26569,-0.0375 -2.07823,-1.11723 -0.77291,-1.02706 -0.45198,-2.2998 0.29473,-1.17053 1.34813,-1.96326 1.02707,-0.77291 2.24334,-0.71885 1.29868,0.0539 2.06168,1.06782 z m 7.0201,10.0411 q 0.72336,0.96123 2.19968,2.84079 1.46642,1.8664 2.17987,2.81446 0.20809,0.27652 -0.0815,0.57691 -0.38824,0.41592 -1.95517,1.5951 -1.58011,1.18909 -2.08726,1.447 -0.32932,0.16533 -0.48434,0.0964 -0.066,-0.0328 -0.3236,-0.3752 -0.68373,-0.90856 -2.01169,-2.75541 -1.33786,-1.86001 -2.03149,-2.78174 -2.81419,-3.73957 -4.7686,-5.73371 -0.18488,-0.19086 -0.23443,-0.2567 -0.19818,-0.26335 0.15734,-0.5309 0.36869,-0.27745 1.1787,-0.76327 0.82317,-0.49572 1.20503,-0.78308 0.38185,-0.28737 1.09602,-0.92793 0.71418,-0.64057 1.09603,-0.92793 0.31602,-0.23782 0.51421,0.0255 0.0396,0.0527 0.16193,0.27 1.64259,2.78567 4.18923,6.16972 z" />
        <path
           inkscape:connector-curvature="0"
           id="path5071"
           style="font-style:normal;font-variant:normal;font-weight:bold;font-stretch:normal;font-size:33.75px;line-height:125%;font-family:'Berlin Sans FB Demi';-inkscape-font-specification:'Berlin Sans FB Demi, Bold';text-align:start;writing-mode:lr-tb;text-anchor:start;fill:#ffffff;fill-opacity:1;stroke:url(#pattern3515);stroke-width:0;stroke-miterlimit:4;stroke-dasharray:none;stroke-opacity:1"
           d="m 301.22997,293.71717 q 0.85302,0.93942 2.64671,2.69417 1.79369,1.75474 2.63563,2.68196 0.44313,0.48801 0.0494,0.91235 -1.41313,1.4835 -3.36518,3.25601 -0.23181,0.21049 -0.94867,-0.40738 -0.71573,-0.64115 -0.83661,-0.55365 -0.0533,0.13743 -0.0679,0.44005 -0.1146,2.61939 -1.67624,4.0374 -2.37906,2.16024 -5.64674,1.6994 -3.07149,-0.41638 -5.28713,-2.85644 -2.55906,-2.81827 -2.59605,-5.92329 -0.0314,-3.2214 2.72589,-5.72507 1.91545,-1.73928 4.24428,-1.40536 0.10419,0.0167 0.14079,-0.0165 0.1098,-0.0997 -0.28774,-0.80718 -0.39643,-0.73075 -0.20123,-0.908 0.45141,-0.40989 1.95289,-1.30582 1.42939,-0.85273 2.1091,-1.15829 0.24947,-0.093 0.36025,0.029 0.0443,0.0488 0.19605,0.28944 1.61474,2.56276 3.85253,5.02722 z m -3.86203,3.64038 q -0.94164,-1.03703 -2.20976,-1.10982 -1.26699,-0.0961 -2.31622,0.85665 -1.04923,0.95272 -1.08654,2.21088 -0.0373,1.25817 0.91541,2.30739 0.89733,0.98823 2.22308,1.07547 1.32575,0.0872 2.30178,-0.79902 1.03702,-0.94165 1.08654,-2.21089 0.0384,-1.28143 -0.91429,-2.33066 z" />
      </g>
      <ellipse
         transform="matrix(-0.69526088,-0.71875748,0.71418344,-0.69995858,0,0)"
         ry="145.46381"
         rx="145.31024"
         cy="-6.3773603"
         cx="-295.13406"
         id="path4184"
         style="opacity:1;fill:none;fill-opacity:0.196078;stroke:none;stroke-width:0;stroke-linecap:butt;stroke-linejoin:miter;stroke-miterlimit:27.5;stroke-dasharray:none;stroke-opacity:1" />
      <g
         id="text5263"
         style="font-style:normal;font-variant:normal;font-weight:bold;font-stretch:normal;font-size:33.75px;line-height:125%;font-family:'Berlin Sans FB Demi';-inkscape-font-specification:'Berlin Sans FB Demi, Bold';text-align:start;letter-spacing:0px;word-spacing:0px;writing-mode:lr-tb;text-anchor:start;fill:#ffffff;fill-opacity:1;stroke:none;stroke-width:5;stroke-linecap:butt;stroke-linejoin:miter;stroke-miterlimit:4;stroke-dasharray:none;stroke-opacity:1"
         transform="translate(1.4285714,2.1428571)">
        <path
           inkscape:connector-curvature="0"
           id="path5022"
           style="font-style:normal;font-variant:normal;font-weight:bold;font-stretch:normal;font-size:33.75px;line-height:125%;font-family:'Berlin Sans FB Demi';-inkscape-font-specification:'Berlin Sans FB Demi, Bold';text-align:start;writing-mode:lr-tb;text-anchor:start;fill:#ffffff;stroke:none;stroke-width:5;stroke-miterlimit:4;stroke-dasharray:none;stroke-opacity:1"
           d="m 115.39528,98.060668 q 0.0745,0.08805 -0.14511,0.338718 -0.41411,0.480039 -2.33867,2.108954 -1.64782,1.39469 -2.3029,1.8196 -0.30868,0.19649 -0.36771,0.20327 -0.10741,0.0261 -0.38903,-0.10253 -0.60389,-0.33087 -1.78846,-0.99069 -1.55522,-0.84267 -4.67532,-2.411874 -0.64163,-0.298936 -1.50184,0.34277 0.39865,-0.294237 -1.27432,1.121744 -0.18869,0.1597 0.35428,0.80122 0.72397,0.85536 2.31219,2.42573 1.6008,1.55974 2.32476,2.41509 0.18099,0.21384 0.0997,0.3474 -0.16546,0.16163 -0.33092,0.32326 -0.69956,0.67846 -2.27191,2.00927 -1.79876,1.52244 -2.22743,1.75572 -0.42866,0.23328 -0.69482,-0.0812 -1.171117,-1.38367 -3.408849,-4.28263 -2.225154,-2.9096 -3.406914,-4.30585 -4.503463,-5.320826 -7.265678,-8.099716 L 85.93472,93.633477 q -0.193569,-0.203193 0.145073,-0.619353 0.351221,-0.426807 3.721352,-3.408771 2.284491,-2.019915 3.668158,-3.191028 2.867964,-2.427399 5.775898,-2.664878 3.285339,-0.276237 5.616919,2.478518 1.55438,1.836504 1.95232,3.378011 0.39793,1.541507 -0.15046,3.776021 -0.11897,0.44613 0.0301,0.622233 -0.0106,-0.01258 4.20688,1.858406 4.21752,1.870984 4.49433,2.198032 z m -14.83299,-6.811651 q -1.29887,-1.534613 -2.805558,-1.274097 -1.163159,0.207245 -2.823559,1.612582 -1.194986,1.011416 -0.96171,1.44008 0.286507,0.491557 2.011238,2.529322 0.244869,0.289312 0.73654,0.844711 0.491671,0.555399 0.725893,0.832133 0.05323,0.06289 0.508987,-0.2149 0.863124,-0.536227 1.705903,-1.249541 2.754756,-2.331581 0.902266,-4.52029 z" />
        <path
           inkscape:connector-curvature="0"
           id="path5024"
           style="font-style:normal;font-variant:normal;font-weight:bold;font-stretch:normal;font-size:33.75px;line-height:125%;font-family:'Berlin Sans FB Demi';-inkscape-font-specification:'Berlin Sans FB Demi, Bold';text-align:start;writing-mode:lr-tb;text-anchor:start;fill:#ffffff;stroke:none;stroke-width:5;stroke-miterlimit:4;stroke-dasharray:none;stroke-opacity:1"
           d="m 126.04643,81.943922 q 2.018,3.169406 1.3287,6.382461 -0.67539,3.204205 -3.8309,5.21336 -3.0582,1.947199 -6.27125,1.257901 -3.21306,-0.689299 -5.16026,-3.747498 -2.05341,-3.22501 -1.43741,-6.430463 0.60714,-3.219354 3.83215,-5.272764 3.1416,-2.000304 6.34456,-1.265502 3.1941,0.7209 5.19441,3.862505 z m -4.5595,2.903097 q -0.69922,-1.098172 -1.91142,-1.498532 -1.22105,-0.414261 -2.30532,0.27611 -1.09817,0.699221 -1.25836,2.012474 -0.15389,1.231095 0.55418,2.343168 0.71692,1.125973 1.89752,1.507382 1.2577,0.41046 2.35587,-0.288761 1.08427,-0.690371 1.24446,-2.003623 0.13999,-1.222245 -0.57693,-2.348218 z" />
        <path
           inkscape:connector-curvature="0"
           id="path5026"
           style="font-style:normal;font-variant:normal;font-weight:bold;font-stretch:normal;font-size:33.75px;line-height:125%;font-family:'Berlin Sans FB Demi';-inkscape-font-specification:'Berlin Sans FB Demi, Bold';text-align:start;writing-mode:lr-tb;text-anchor:start;fill:#ffffff;stroke:none;stroke-width:5;stroke-miterlimit:4;stroke-dasharray:none;stroke-opacity:1"
           d="m 137.25698,73.382143 q -0.0148,0.0073 -1.01862,0.206035 -0.98904,0.191518 -1.53645,0.460074 -1.31676,0.645986 -1.70894,1.829603 -0.39945,1.168822 0.24654,2.485574 0.66776,1.361138 1.91055,1.724291 1.23554,0.348359 2.61148,-0.32666 0.65097,-0.319364 1.30502,-1.044058 0.64678,-0.739489 0.60239,-0.717714 0.25152,-0.123391 1.57278,1.559597 1.18225,1.549277 1.45806,2.111485 0.27582,0.562209 -1.36279,1.861699 -1.26789,1.007488 -2.14079,1.435726 -3.2549,1.59682 -6.4448,0.445097 -3.18991,-1.151724 -4.79399,-4.421412 -1.58956,-3.240099 -0.55536,-6.482482 1.04174,-3.264437 4.28184,-4.853998 2.20445,-1.081482 4.34081,-0.954789 0.48628,0.01842 0.58064,0.21075 0.0944,0.192334 0.41263,1.963554 0.31882,1.697524 0.33809,2.073543 0.0341,0.36876 -0.0991,0.434085 z" />
        <path
           inkscape:connector-curvature="0"
           id="path5028"
           style="font-style:normal;font-variant:normal;font-weight:bold;font-stretch:normal;font-size:33.75px;line-height:125%;font-family:'Berlin Sans FB Demi';-inkscape-font-specification:'Berlin Sans FB Demi, Bold';text-align:start;writing-mode:lr-tb;text-anchor:start;fill:#ffffff;stroke:none;stroke-width:5;stroke-miterlimit:4;stroke-dasharray:none;stroke-opacity:1"
           d="m 158.58329,65.508891 q 1.20269,3.437653 -1.54691,6.407401 -0.25668,0.264391 -0.19681,0.435496 0.0925,0.264435 2.21938,1.702699 2.12143,1.422709 2.15408,1.516039 0.14694,0.419984 -3.97514,1.862127 -1.58661,0.555088 -1.97698,0.237731 -0.98682,-0.824503 -2.98925,-2.306303 -0.11042,-0.06612 -2.87608,0.761799 0.1687,0.482204 0.55431,1.534502 0.38562,1.052297 0.5652,1.565612 0.16327,0.46665 -0.2715,0.671134 -0.26911,0.129067 -2.44681,0.890953 -1.88215,0.658488 -2.21502,0.705109 -0.44719,0.06916 -0.64311,-0.49082 l -3.33053,-9.519655 q -0.66937,-1.913264 -2.14267,-5.675259 -1.47329,-3.761995 -2.13722,-5.659704 -0.13061,-0.37332 0.28393,-0.53581 0.82441,-0.288429 2.46236,-0.896395 0.42466,-0.183488 1.44353,-0.714539 0.89988,-0.47196 1.4443,-0.662431 0.24888,-0.08707 0.4067,0.364022 0.2068,0.59109 0.4672,1.634816 0.30471,1.220274 0.44153,1.661256 1.03005,3.393302 1.67221,5.228791 0.15238,0.43554 0.2667,0.413001 0.10735,-0.142309 0.2536,-0.472819 1.28747,-2.80739 4.1807,-3.819611 2.72212,-0.952358 4.75965,-0.268489 2.24206,0.769443 3.17265,3.429347 z m -5.8216,3.171566 q -0.65849,-1.882154 -2.78952,-1.136593 -0.94886,0.331964 -1.77182,1.422995 -0.88441,1.164906 -0.56877,2.067096 0.45169,1.291064 0.90197,1.430332 0.3453,0.0887 1.85413,-0.439175 3.15766,-1.104736 2.37401,-3.344655 z" />
        <path
           inkscape:connector-curvature="0"
           id="path5030"
           style="font-style:normal;font-variant:normal;font-weight:bold;font-stretch:normal;font-size:33.75px;line-height:125%;font-family:'Berlin Sans FB Demi';-inkscape-font-specification:'Berlin Sans FB Demi, Bold';text-align:start;writing-mode:lr-tb;text-anchor:start;fill:#ffffff;stroke:none;stroke-width:5;stroke-miterlimit:4;stroke-dasharray:none;stroke-opacity:1"
           d="m 199.69207,66.659405 q 0.0201,0.262903 -0.29224,0.71653 -2.74797,3.829881 -7.75956,4.213446 -5.12661,0.392369 -8.58218,-2.863555 -3.3646,-3.147192 -3.75948,-8.306663 -0.38231,-4.995157 2.3909,-8.711276 2.89208,-3.890494 7.78865,-4.265256 5.32378,-0.407459 8.59743,2.631001 0.35629,0.336339 0.37767,0.615674 0.0239,0.312197 -0.97288,2.404864 -0.98034,2.091409 -1.25724,2.360517 -0.1214,0.141512 -0.31857,0.156603 -0.0822,0.0063 -0.87188,-0.594378 -0.94766,-0.720799 -1.83605,-1.099053 -1.34839,-0.557908 -2.74506,-0.451012 -2.41542,0.184865 -3.72305,2.102991 -1.20267,1.777872 -1.01404,4.242587 0.19116,2.497579 1.65164,4.088152 1.58681,1.729653 4.00223,1.544787 1.42954,-0.10941 2.6634,-0.831897 0.80657,-0.474923 1.62084,-1.28099 0.6752,-0.679728 0.75735,-0.686016 0.16432,-0.01258 0.34247,0.155594 0.28553,0.275644 1.58673,1.944519 1.33909,1.732086 1.35292,1.912831 z" />
        <path
           inkscape:connector-curvature="0"
           id="path5032"
           style="font-style:normal;font-variant:normal;font-weight:bold;font-stretch:normal;font-size:33.75px;line-height:125%;font-family:'Berlin Sans FB Demi';-inkscape-font-specification:'Berlin Sans FB Demi, Bold';text-align:start;writing-mode:lr-tb;text-anchor:start;fill:#ffffff;stroke:none;stroke-width:5;stroke-miterlimit:4;stroke-dasharray:none;stroke-opacity:1"
           d="m 207.92849,60.949298 q -0.1232,4.497214 -0.15613,6.90322 -0.0104,0.378887 0.0138,1.302746 0.0264,0.841493 0.0138,1.302745 -0.009,0.34594 -0.42311,0.400552 -0.74491,0.11148 -2.67229,0.05868 -1.9768,-0.05415 -2.51681,-0.200829 -0.36015,-0.09229 -0.39965,-0.45606 0.001,-0.04942 0.0194,-0.708353 0.0402,-1.466125 0.15298,-4.380998 0.11327,-2.931348 0.15298,-4.380999 0.18952,-6.918792 0.1893,-6.308828 0.0503,-3.641956 -0.23991,-6.287613 -0.028,-0.182109 -0.0253,-0.280949 0.01,-0.362413 0.43823,-0.35068 l 5.88097,0.161097 q 0.41184,0.01128 0.36941,0.356318 l -0.0246,0.296068 q -0.62325,7.104739 -0.77306,12.573879 z" />
        <path
           inkscape:connector-curvature="0"
           id="path5034"
           style="font-style:normal;font-variant:normal;font-weight:bold;font-stretch:normal;font-size:33.75px;line-height:125%;font-family:'Berlin Sans FB Demi';-inkscape-font-specification:'Berlin Sans FB Demi, Bold';text-align:start;writing-mode:lr-tb;text-anchor:start;fill:#ffffff;stroke:none;stroke-width:5;stroke-miterlimit:4;stroke-dasharray:none;stroke-opacity:1"
           d="m 218.9785,51.897537 q -0.25961,2.855655 -3.47633,2.563218 -1.37859,-0.12533 -2.21559,-0.929512 -0.91309,-0.877288 -0.79075,-2.223057 0.11638,-1.280121 1.20851,-2.008206 1.00411,-0.669897 2.31706,-0.550535 1.28012,0.116378 2.14547,0.972779 0.92651,0.911604 0.81163,2.175313 z m -1.53529,12.155183 q -0.10891,1.198062 -0.27602,3.58225 -0.16562,2.367777 -0.27304,3.549427 -0.0313,0.344648 -0.4476,0.372995 -0.56695,0.04774 -2.51996,-0.129809 -1.96942,-0.179044 -2.51847,-0.328243 -0.35509,-0.09847 -0.42372,-0.253639 -0.0268,-0.06863 0.0119,-0.495338 0.10295,-1.132415 0.35808,-3.392769 0.25663,-2.276765 0.36107,-3.425592 0.42374,-4.660954 0.31334,-7.450963 -0.009,-0.265573 -10e-4,-0.347632 0.0298,-0.328236 0.47296,-0.287951 0.45953,0.04178 1.38605,0.225293 0.94293,0.185008 1.41887,0.228277 0.47595,0.04327 1.43529,0.04775 0.95935,0.0045 1.43529,0.04775 0.39388,0.03581 0.36404,0.364045 -0.006,0.06565 -0.0612,0.30884 -0.652,3.167478 -1.03546,7.385314 z" />
        <path
           inkscape:connector-curvature="0"
           id="path5036"
           style="font-style:normal;font-variant:normal;font-weight:bold;font-stretch:normal;font-size:33.75px;line-height:125%;font-family:'Berlin Sans FB Demi';-inkscape-font-specification:'Berlin Sans FB Demi, Bold';text-align:start;writing-mode:lr-tb;text-anchor:start;fill:#ffffff;stroke:none;stroke-width:5;stroke-miterlimit:4;stroke-dasharray:none;stroke-opacity:1"
           d="m 245.85468,76.676188 q -0.12873,0.562233 -0.62536,0.516145 -0.49663,-0.04609 -2.39215,-0.4801 -1.95979,-0.448725 -2.41963,-0.65545 -0.45985,-0.206725 -0.30169,-0.897468 0.16919,-0.738935 0.55209,-2.189706 0.38657,-1.466834 0.55576,-2.205769 0.64367,-2.811163 0.85159,-4.014596 0.34131,-1.93366 -1.37752,-2.327214 -0.755,-0.17287 -1.65712,0.296812 -0.88238,0.457297 -1.13924,1.209968 -0.21874,0.659967 -0.96907,3.936981 -0.17286,0.754998 -0.47777,2.308156 -0.30122,1.537095 -0.47777,2.308157 -0.12138,0.530105 -0.58723,0.423441 l -4.86733,-1.114457 q -0.44978,-0.102986 -0.29898,-0.761602 0.17287,-0.754998 0.5668,-2.25396 0.39393,-1.498963 0.57048,-2.270025 0.13608,-0.59436 0.37981,-1.806501 0.24373,-1.21214 0.3835,-1.822564 0.52596,-2.297122 -1.22499,-2.698033 -0.70681,-0.161835 -1.65112,0.196752 -1.03566,0.388388 -1.18646,1.047003 -0.3347,1.461805 -0.98437,4.37303 -0.64967,2.911224 -0.9807,4.356966 -0.092,0.401594 -0.2104,0.475909 -0.11845,0.07431 -0.5274,0.01449 -0.73758,-0.101259 -2.29577,-0.458032 -1.01202,-0.231719 -2.27506,-0.622348 -0.37817,-0.120401 -0.4401,-0.219111 -0.0459,-0.09503 0.0461,-0.496626 0.29424,-1.285103 0.89512,-3.835568 0.60456,-2.566529 0.8988,-3.851632 0.60321,-2.634462 0.97168,-6.015813 0.012,-0.200122 0.0341,-0.296504 0.0625,-0.273085 0.30949,-0.317975 0.38651,-0.06366 1.38847,0.06432 1.23053,0.163409 1.46278,0.182775 0.16799,0.0047 1.34628,-0.04677 0.83861,-0.04467 1.32053,0.06568 0.30521,0.06988 0.0638,1.198027 -0.23772,1.11208 -0.12528,1.137826 0.17535,-0.02747 0.42096,-0.140297 1.70321,-0.793439 2.63416,-1.019837 1.373,-0.311149 2.81874,0.01988 1.47787,0.338383 2.48366,1.26182 1.13197,1.036859 1.21222,2.458428 1.11621,-0.961655 2.79037,-1.40672 1.67415,-0.445065 3.08777,-0.121394 2.12042,0.485506 3.22935,1.770678 1.25621,1.454141 0.78542,3.510306 -0.19494,0.851381 -0.63669,2.559173 -0.43807,1.691727 -0.633,2.543108 -0.23172,1.012019 -0.65065,3.063155 -0.41524,2.035072 -0.64696,3.047091 z" />
        <path
           inkscape:connector-curvature="0"
           id="path5038"
           style="font-style:normal;font-variant:normal;font-weight:bold;font-stretch:normal;font-size:33.75px;line-height:125%;font-family:'Berlin Sans FB Demi';-inkscape-font-specification:'Berlin Sans FB Demi, Bold';text-align:start;writing-mode:lr-tb;text-anchor:start;fill:#ffffff;stroke:none;stroke-width:5;stroke-miterlimit:4;stroke-dasharray:none;stroke-opacity:1"
           d="m 268.28401,78.09843 q -1.33823,3.191477 -4.06046,4.569622 -2.90116,1.463941 -6.03185,0.151198 -2.27963,-0.955881 -3.12976,-2.849141 -0.0682,-0.135793 -0.14414,-0.167656 -0.15197,-0.06373 -0.52453,0.44123 -0.35737,0.511328 -0.56523,0.495647 -0.29022,-0.03234 -4.36315,-1.740186 -0.95744,-0.40147 -0.81088,-0.751013 0.0191,-0.04559 0.12599,-0.215218 1.31718,-2.288953 4.16571,-9.082242 2.72107,-6.489337 4.27887,-11.482927 l 0.0549,-0.173546 q 0.10196,-0.24316 0.58583,-0.07601 0.34072,0.124998 2.73995,0.880859 1.68986,0.529887 2.7081,0.956847 0.28875,0.121079 0.0785,0.622597 -0.24853,0.592702 -0.73236,1.533481 -0.59462,1.162368 -0.76913,1.535933 -0.70687,1.472691 -1.79657,4.071466 -0.19755,0.471123 0.0456,0.573083 0.12158,0.05098 0.27894,-0.02599 1.97954,-0.885432 4.19838,0.04496 3.32825,1.395586 4.24804,4.443838 0.8531,2.823727 -0.58072,6.243167 z m -5.4314,-2.474033 q 0.52892,-1.261393 0.11708,-2.452651 -0.40546,-1.206455 -1.65166,-1.729004 -1.27659,-0.535293 -2.39088,0.03391 -1.09271,0.560376 -1.63438,1.852165 -0.56078,1.337381 -0.19061,2.457556 0.39664,1.184885 1.70362,1.732924 1.29179,0.541666 2.42765,-0.03636 1.06477,-0.536354 1.61918,-1.858538 z" />
        <path
           inkscape:connector-curvature="0"
           id="path5040"
           style="font-style:normal;font-variant:normal;font-weight:bold;font-stretch:normal;font-size:33.75px;line-height:125%;font-family:'Berlin Sans FB Demi';-inkscape-font-specification:'Berlin Sans FB Demi, Bold';text-align:start;writing-mode:lr-tb;text-anchor:start;fill:#ffffff;stroke:none;stroke-width:5;stroke-miterlimit:4;stroke-dasharray:none;stroke-opacity:1"
           d="m 282.09371,72.427109 q -1.37209,2.517839 -4.20828,0.972258 -1.21551,-0.662392 -1.66441,-1.732796 -0.48971,-1.167713 0.15691,-2.354281 0.61508,-1.128686 1.90652,-1.363295 1.18755,-0.216155 2.34518,0.414694 1.12868,0.615078 1.58287,1.744664 0.48841,1.20454 -0.11879,2.318756 z m -6.23524,10.546435 q -0.57565,1.056335 -1.67565,3.178191 -1.09212,2.107386 -1.65989,3.14925 -0.16559,0.303877 -0.55889,0.164618 -0.53931,-0.181289 -2.26128,-1.119678 -1.73644,-0.946274 -2.18112,-1.301207 -0.2868,-0.231365 -0.28818,-0.401026 0.003,-0.07365 0.20762,-0.449881 0.54411,-0.998454 1.67574,-2.971703 1.13951,-1.987721 1.6915,-3.000644 2.23952,-4.109576 3.24595,-6.714077 0.0972,-0.247296 0.13666,-0.319648 0.15771,-0.289407 0.54841,-0.07649 0.40517,0.220797 1.18267,0.757099 0.79196,0.544188 1.2116,0.772871 0.41964,0.228683 1.29835,0.613697 0.87871,0.385014 1.29835,0.613697 0.34729,0.189255 0.18958,0.478662 -0.0315,0.05788 -0.17877,0.259165 -1.85605,2.648232 -3.88265,6.367109 z" />
        <path
           inkscape:connector-curvature="0"
           id="path5042"
           style="font-style:normal;font-variant:normal;font-weight:bold;font-stretch:normal;font-size:33.75px;line-height:125%;font-family:'Berlin Sans FB Demi';-inkscape-font-specification:'Berlin Sans FB Demi, Bold';text-align:start;writing-mode:lr-tb;text-anchor:start;fill:#ffffff;stroke:none;stroke-width:5;stroke-miterlimit:4;stroke-dasharray:none;stroke-opacity:1"
           d="m 288.91771,99.889098 q -0.25047,0.367752 -0.66895,0.162482 -0.41848,-0.20527 -2.02568,-1.299932 -1.71617,-1.168877 -2.06912,-1.528903 -0.35295,-0.360026 -0.0283,-0.836739 0.43601,-0.640158 1.35817,-1.906263 0.92215,-1.266106 1.36744,-1.919884 0.34324,-0.503954 0.99321,-1.516795 0.65924,-1.026461 1.00248,-1.530415 1.27092,-1.865992 -0.3499,-2.969931 -0.5312,-0.361795 -1.55487,-0.381096 -1.11526,-0.0019 -1.4585,0.502028 l -5.00947,7.355003 q -0.30613,0.449472 -0.76547,0.216373 -0.51382,-0.270207 -1.98482,-1.272101 -1.59359,-1.085386 -2.01464,-1.491796 -0.37585,-0.355683 -0.1161,-0.737053 0.72359,-1.06239 2.19367,-3.191512 1.47008,-2.129122 2.20295,-3.205132 2.30992,-3.391473 3.09603,-5.687362 0.0563,-0.141137 0.11191,-0.222859 0.14843,-0.217926 0.4084,-0.160497 0.92302,0.489096 2.49231,1.258855 2.45322,1.052779 2.72563,1.238315 0.14982,0.102045 -0.39928,1.083891 -0.53982,0.968226 -0.39,1.070271 -0.14982,-0.102045 2.09748,0.05281 2.2702,0.150513 3.48242,0.976148 1.72978,1.178154 2.33091,2.783904 0.65383,1.821102 -0.48721,3.496408 l -2.9593,4.3449 q -0.60299,0.885325 -1.79536,2.66525 -1.18308,1.766306 -1.78608,2.65163 z" />
        <path
           inkscape:connector-curvature="0"
           id="path5044"
           style="font-style:normal;font-variant:normal;font-weight:bold;font-stretch:normal;font-size:33.75px;line-height:125%;font-family:'Berlin Sans FB Demi';-inkscape-font-specification:'Berlin Sans FB Demi, Bold';text-align:start;writing-mode:lr-tb;text-anchor:start;fill:#ffffff;stroke:none;stroke-width:5;stroke-miterlimit:4;stroke-dasharray:none;stroke-opacity:1"
           d="m 305.90277,109.74563 q -3.13321,3.4988 -5.96961,3.70183 -2.91849,0.1959 -6.45411,-2.9703 -1.03123,-0.92347 -2.51448,-2.84902 -1.89737,-2.45124 -1.39166,-3.01596 0.20889,-0.23325 2.68266,-1.93346 0.39376,-0.26678 0.57791,-0.10188 0.0504,0.0673 0.0911,0.17004 1.05506,2.62605 2.66328,4.06622 0.8839,0.79155 2.15131,1.13015 1.5285,0.41757 2.2431,-0.3804 l 0.73657,-0.82252 q -2.30759,0.0572 -4.27183,-1.70182 -2.30798,-2.06681 -2.30928,-5.054378 -0.007,-2.882207 2.08164,-5.214737 2.0998,-2.344807 4.85998,-2.660346 2.87652,-0.321953 5.19678,1.755859 1.85374,1.660051 1.64854,3.865408 -0.0454,0.445982 0.0282,0.511944 0.11049,0.09894 0.50626,-0.343009 0.8795,-0.982118 1.10048,-0.784231 0.19642,0.175899 1.93693,2.110613 1.75151,1.922437 1.80318,2.012957 0.14274,0.26055 -0.0771,0.50608 -0.75857,0.84707 -2.32609,2.47398 -1.55525,1.6379 -2.31381,2.48498 -0.45075,0.50334 -1.33995,1.521 -0.88921,1.01767 -1.33995,1.521 z m -1.20241,-7.20441 q 0.80255,-0.89618 0.78367,-2.08553 0.004,-1.190624 -0.8918,-1.993166 -0.89618,-0.802541 -2.10238,-0.666027 -1.18293,0.135231 -1.98547,1.031414 -0.80255,0.896182 -0.78367,2.085529 0.0312,1.20034 0.90279,1.98089 0.89618,0.80254 2.07912,0.66731 1.1952,-0.12424 1.99774,-1.02042 z" />
      </g>
      <path
         clip-path="none"
         sodipodi:nodetypes="cccccccccccccccccccccccccccccccccccccccccccccccccccccccccccccccccccccccccccccccccccccccccccccccccccccccccccccccccccccccccccccccccccccccccc"
         inkscape:connector-curvature="0"
         id="path4180"
         d="m 241.04758,280.67876 c 3.79834,-1.97469 2.8694,-2.47332 3.4755,-4.39967 1.07324,-1.093 0.91158,-4.07882 1.13243,-6.49055 -0.48709,-1.06686 -0.17513,0.30189 -0.85907,-5.75004 0.30056,-3.21296 -0.79462,-3.67156 -1.09338,-4.87883 l -1.99163,-1.35035 c -0.98779,-0.16762 -2.16123,0.13807 -2.46012,-1.78602 -0.20826,-1.16159 0.18862,-3.50465 -0.62479,-3.48489 l -1.17148,0.26136 c -1.95429,-3.96304 -4.22704,-8.34079 -6.806,-13.11707 -0.76028,-2.03071 -2.2911,-3.45971 -4.08669,-4.68191 -1.54818,-0.83664 -3.09075,-1.68926 -4.63895,-2.52578 -1.08196,-1.0681 -0.34856,-2.27121 0.0556,-3.44985 2.12742,-1.88217 2.99721,-4.60618 4.14192,-7.14611 0.3643,1.17655 0.86457,0.68476 1.32536,0.67768 0.84821,-0.31905 1.73369,-0.38846 2.48509,-1.35532 0.46485,-0.76751 0.24631,-0.89976 0.11046,-1.10888 -0.14616,-0.47353 -0.51543,-0.69819 -0.77314,-1.04728 1.80819,-0.61091 3.17849,-2.32062 4.58372,-3.94267 v 1.66331 l -0.22091,1.41692 c -0.52104,1.83898 -1.69025,3.09954 -0.77315,6.22203 0.28033,0.19551 -0.27331,0.46259 1.21495,0.55444 1.25437,-0.36766 2.27299,-0.91072 2.59565,-1.97135 0.18476,-0.48098 0.46135,-0.94736 -0.0557,-1.54012 l -0.38669,-1.7249 0.99416,0.3142 c 0.82861,-0.099 0.51601,-0.15116 2.06225,-1.43055 l 0.60078,-2.12314 -0.12273,-0.6416 c 0.80555,-0.0273 1.0818,-0.84147 1.27016,-1.78651 0.74701,-1.81103 0.35759,-3.1995 0.2209,-4.68196 0.30863,-0.0711 0.92232,0.25569 0.66269,-0.55442 -0.55679,-1.21173 -1.27756,-2.10518 -1.98806,-3.0186 -0.25286,-0.80287 -1.01355,-1.39333 -2.09853,-1.84813 0.21202,-0.53365 0.89475,-0.71731 0.55226,-1.66334 0.16947,-0.65589 0.14748,-1.04922 -0.35817,-1.92029 -0.73499,-0.97495 -0.61204,-0.45759 -1.0615,-0.58307 -0.65535,-0.41924 -1.92831,0.33339 -2.67766,0.54389 0.3877,-0.74494 0.8556,-2.22383 0.53608,-3.08149 0.34974,-0.14784 0.89491,-0.31307 0.7826,-0.6671 0.49192,-0.69724 0.85581,-1.275 0.79053,-1.49964 0.0903,-0.76379 0.23231,-1.33172 0.56174,-1.83758 -0.79088,-1.43135 0.39628,-2.31901 0.62086,-3.54442 0.75864,-1.81686 2.77458,-3.83885 5.08074,-3.75784 1.61205,-0.58172 2.35898,0.63308 3.27441,1.27251 1.46923,0.82246 2.2321,1.89148 2.5566,3.06218 1.64605,1.73215 3.50238,3.06217 5.45778,3.98934 2.3241,1.28268 5.14368,1.46742 6.41563,3.27999 1.11865,2.54965 3.07622,2.16127 3.03732,4.80514 -0.21139,0.73992 -0.45788,1.40154 -0.77313,1.90974 0.037,0.26283 -0.27799,0.29033 0.2209,0.86247 0.90178,0.2051 1.12744,-0.344 1.54627,-0.67765 0.86987,-0.62874 1.69447,-1.33344 2.15385,-2.64902 l -0.2209,-1.72489 0.30176,-1.0666 -0.0809,-1.08956 c 0.021,-0.49282 -0.21115,-0.9857 -0.38657,-1.47854 -1.4296,-0.47421 0.66257,1.10561 -3.75534,-3.14181 l -3.25835,-2.40254 c -1.62502,-1.72565 -2.3144,-3.12171 -5.74341,-5.4828 -2.85374,-1.5871 -4.33884,-4.88426 -6.40611,-7.45413 -0.66271,-0.92379 -1.32539,-2.45731 -1.98806,-3.69628 -0.88665,-0.11809 -1.40085,-0.8594 -1.87764,-1.66328 0.3186,-0.31599 0.66347,-0.57326 0.8836,-1.10892 0.93045,-1.07901 0.97891,-2.52696 1.10448,-3.94265 -0.89398,-4.04332 -0.77269,-2.77232 -1.20153,-3.5986 -0.47997,-1.20702 -1.56143,-1.5854 -2.27771,-2.31543 -0.62733,-1.48306 -2.0764,-1.81903 -3.36867,-2.03293 -0.71791,-0.44683 -1.43582,0.0551 -2.15386,0.12321 -0.45498,0.34173 -1.45163,0.38137 -1.33878,1.03981 -0.93899,0.28736 -1.15871,0.97595 -1.47764,1.60914 l 0.11045,0.49283 -1.71196,-0.49283 c -0.65381,-0.007 -0.66322,0.41855 -0.82836,0.73925 l 0.16567,1.23208 c -0.16836,1.18904 -0.53423,2.23127 -1.32548,2.95703 l -0.26551,1.12381 0.10377,1.11944 c 0.71814,0.76367 1.52853,1.51151 0.93491,2.50031 -1.15648,-0.31435 -1.71905,-1.12556 -2.04611,-2.13377 -0.72995,0.42822 -1.19317,0.11247 -1.72926,0 -0.65601,-1.71184 -0.40929,0.43642 -1.96798,-5.1356 -0.0247,-0.61609 -0.33419,-1.22979 -0.56574,-2.1922 -2.10837,-3.74816 -4.44829,-7.22387 -6.22704,-11.79196 l -1.5167,-2.65514 -1.26347,-0.9148 -2.68713,2.21468 c -0.14763,0.24213 -0.18548,0.53327 -0.82836,0.55441 l 1.98818,1.54009 0.60745,-0.92406 1.10449,3.44987 c 0.43526,0.15698 0.77159,0.20361 1.6015,0.80086 2.21134,9.60548 -0.1819,3.59983 3.53444,11.70485 1.19311,2.61531 2.50406,5.25699 3.20302,7.76212 0.78976,1.08453 0.5978,1.69974 0.71791,2.46417 -1.84862,5.7863 -3.10091,10.74107 -3.70001,14.78506 -1.93584,-1.42047 -3.73341,-1.04229 -5.35686,1.6017 -1.69284,1.26752 -1.1667,2.54924 -0.63032,3.70373 -1.06329,2.89072 -2.01076,7.26996 -3.21375,7.70059 -1.82878,-0.0876 -3.23312,-0.22899 -4.56084,0.17731 l 0.83912,0.67764 c -2.49931,1.10802 -5.14088,1.79244 -7.95252,1.97133 -3.34108,-0.44037 -3.967,2.93371 -4.41804,5.72923 -2.96918,7.61141 -8.13438,14.04638 -11.10016,18.11167 l -1.87774,0.30805 -1.49103,0.062 -0.0556,0.43125 -0.22089,-0.43125 h -0.44181 l -0.2761,0.24642 -0.33134,-0.49284 -1.15971,-0.12321 -0.93893,0.36963 -1.04926,-0.61604 c -1.41333,-1.54498 -2.59738,-1.04317 -3.7,0.18481 1.3694,2.93963 4.86222,4.43592 6.40612,6.46848 2.17107,0.75501 2.00403,1.66343 2.5403,2.52572 2.08761,2.06561 4.17521,4.13108 5.24638,-0.49282 0.39684,-1.02672 0.49369,-2.05346 1.76719,-3.08019 l -0.16568,-0.36965 c 17.17479,-19.29722 10.37328,-14.915 12.86755,-19.71335 2.18755,-0.74055 3.71824,-0.25979 5.30153,0.12319 -3.89817,11.40921 -10.98112,18.20006 -16.73314,26.9211 -7.04324,8.00709 -17.49777,13.31041 -27.83353,17.98849 -4.73394,1.85129 -8.53643,1.77291 -12.59132,2.21772 l -0.44179,2.46416 c 16.0615,-2.03409 16.05204,-5.09256 24.07817,-7.63891 5.93228,-4.77119 6.69722,-3.19555 17.45116,-13.79938 13.68257,-18.34595 11.56351,-18.47734 17.34528,-27.71602 2.10453,0.99065 4.23204,1.80179 6.48229,1.65532 -0.56601,4.39991 -1.28104,8.60033 -2.57736,12.02282 -0.41416,8.7001 5.80656,6.1426 9.13777,12.10993 4.14244,4.74963 9.76791,8.83755 11.94932,14.4622 1.87722,3.01494 2.97951,5.388 3.43644,6.53412 -1.36294,0.74832 -1.46875,1.33817 0.15622,2.4394 1.73052,3.00469 2.58662,5.39639 1.71817,6.44699 0.10318,3.14195 -0.33889,6.57846 2.73348,7.92809 z"
         style="opacity:1;fill:#000000;fill-opacity:1;fill-rule:evenodd;stroke:#000000;stroke-width:0.801518px;stroke-linecap:butt;stroke-linejoin:miter;stroke-opacity:1" />
      <path
         sodipodi:nodetypes="cccccccccccscsssscssccccccsccccc"
         inkscape:connector-curvature="0"
         id="path5741"
         d="m 180.0479,96.296999 c 5.16371,4.111451 9.76344,9.580801 12.20449,14.317261 h -2.50957 c 3.3596,3.16432 5.40376,2.71786 12.12938,15.12233 0.37984,2.90164 0.63681,5.61525 -0.62737,6.00087 4.59774,-1.72404 4.20646,2.58773 3.76435,6.96107 -1.59303,-1.07416 -1.68472,-0.61651 -2.09125,-0.48008 -0.64035,1.38055 -0.0542,2.45935 1.25476,3.36057 -0.17763,-3.2042 2.94885,-2.829 5.43732,-3.1205 2.33315,2.79292 0.84329,6.46346 0.62738,9.84148 -1.08257,-1.70293 -1.47938,-1.20193 -1.88223,-0.72009 -0.98501,1.77464 -1.22785,3.81428 -1.31469,5.67142 -0.0638,1.35513 -0.26361,2.5009 0.4782,3.93002 0.2675,2.30984 -1.78108,3.86005 -1.63269,4.29861 0.17393,0.51406 0.0926,2.56606 -0.70956,4.24474 -0.80186,1.67831 -2.01056,3.4632 -2.83707,5.60419 -0.87764,2.27361 -1.43225,4.89371 -2.09284,6.47097 -0.6437,1.537 -1.70698,1.58856 -2.55676,0.98478 -3.01776,3.90914 -4.8761,8.13401 -6.49349,12.20255 -1.29565,3.25889 -2.53035,6.33151 -3.38459,9.70186 -0.43236,1.70592 0.15839,3.76844 -0.36922,5.45975 -1.36601,3.58644 -3.17159,6.48495 -6.06469,7.68116 -1.68505,4.5627 -4.8234,7.45736 -7.26248,11.15448 -0.86735,2.89133 -2.6525,5.59107 -2.1483,8.76857 l -1.39632,1.72673 c -1.26826,3.16322 -3.24325,4.31863 -5.94001,7.34532 -2.81624,1.8302 -1.16066,1.38622 -7.01314,5.99215 -1.20996,0.95225 -2.00533,2.23608 -2.799,3.1786 -2.99649,3.77301 -5.83432,8.13314 -10.03806,7.44113 -4.54772,0.0852 -6.38921,2.13145 -8.36517,4.08057 -6.9012,0.36842 -14.2442,2.9817 -21.14541,0.51198 C 79.846895,219.59729 83.22193,117.82726 180.0479,96.296999 Z"
         style="fill:#000000;fill-opacity:1;fill-rule:evenodd;stroke:#000000;stroke-width:1.08846;stroke-linecap:butt;stroke-linejoin:miter;stroke-miterlimit:4;stroke-dasharray:none;stroke-opacity:1" />
    </g>
  </g>
</svg>
